@startuml Mastermind

title Conception Mastermind

skinparam style strictuml
skinparam classAttributeIconSize 0
skinparam classFontStyle Bold
hide enum methods

package Mastermind
{
    /''''''''''''''''''''''''''''''''''''''''''''''''''''''''''
    '                          main                           '
    ''''''''''''''''''''''''''''''''''''''''''''''''''''''''''/
    class MastermindApp{
        + {static} main(args: String[])
    }

    /''''''''''''''''''''''''''''''''''''''''''''''''''''''''''
    '                         models                          '
    ''''''''''''''''''''''''''''''''''''''''''''''''''''''''''/
    package model
    {
        class MastermindFacade {
            + jouerPartie()
        }

        class Partie {
            - joueur: String
            - _score: Score
            - mode: StrategyMode
            - _manche: Manche
            # {static} nbManche: Integer
            # {static} nbPionsCombinaison: Integer
            # {static} maxTentatives: Integer
            # {static} nbPions: Integer
            + <<create>> Partie()
            + setMode(mode : StrategyMode)
            + setNbManches(nbManches : Integer)
            + setNbPionCombinaison(NbPionsCombinaison : Integer)
            + setMaxTentatives(maxTentatives : Integer)
            + setNbPions(nbPions : Integer)
            + getMode() : StrategyMode
            + getNbManches() : Integer
            + getScore(): Score
            + getNbPionCombinaison() : Integer
            + getMaxTentatives() : Integer
            + getNbPions() : Integer
            + getJoueur() : String
            + get_manches(): Manche
            + setManche()
        }

        class Score {
            - scoreManches: Integer[*]
            - scoreTotal: Integer
            + <<create>> Score(nbMances : Integer)
            + calculerScoreManche(indices : LigneIndice, mode : StrategyMode) : Integer
            + calculerScoreTotal(): Integer
            + getScoreManche(numManche : Integer) : Integer
            + getScoreManches() : Integer[*]
            + getScoreTotal() : Integer
        }

        class Manche {
            - _indices: LigneIndice[*]
            - _combinaisonSecrete: Combinaison
            - _combinaisonsJoueur: Combinaison[*]
            - numTentative: Integer
            + {static} _combinaisonsJoueurTest: Combinaison
            - _ligneIndice: LigneIndice
            + <<create>> Manche()
            + setLigneIndice()
            + unsetCombinaisonJoueur()
            + unsetLigneIndice()
            + ajouterTentative(tentative: Combinaison)
            + getIndices(): LigneIndice[*]
            + getCombinaisonsJoueur(): Combinaison[*]
            + getNumTentative() : Integer
            + affichageCombinaisonSecrete()
            + affichageCombinaisonJoueur()
            + affichageIndices()
            + estGagne(NbPionsCombinaison : Integer) : Boolean
            + estDepasse(maxTentatives : Integer) : Boolean
            + verifierFinManche(NbPionsCombinaison : Integer, maxTentatives : Integer): Boolean
            + get_ligneIndice(): LigneIndice
        }

        class Combinaison {
            - _combinaisonJoueur: Pions[*]
            - {static} _combinaisonSecrete: Pions[*]
            + <<create>> Combinaison(flag: int)
            + setCombinaisonJoueur(combinaisonJoueur: Pions)
            + {static} genererCombinaisonSecrete(): Pions[*]
            + addCombinaisonJoueur(choix: String)
            + verifierCorrespondance(tentative: Pions[*]): Indice[*]
            + {static} getCombinaisonSecrete(): Pions[*]
            + getCombinaisonJoueur(): Pions[*]
        }

        class LigneIndices {
            - _indices: Indice[*]
            + <<create>> LigneIndices()
            + setIndices(indices: Indice)
            + getIndices(): Indice[*]
            + getNbPositionCouleur() : int
            + getNbCouleur() : int
            + getNbAbsent() : int
        }

        class ModeFactory {
            + <<create>> ModeFactory()
            + createFacile() : StrategyMode
            + createClassique() : StrategyMode
            + createNumerique() : StrategyMode
        }

        enum Pions {
            +ROUGE
            +BLEU
            +VERT
            +JAUNE
            +ORANGE
            +VIOLET
            +BLANC
            +NOIR
        }

        enum Indice {
            +BIEN_PLACE
            +MAL_PLACE
            +ABSENT
        }
    }

    /''''''''''''''''''''''''''''''''''''''''''''''''''''''''''
    '                          view                           '
    ''''''''''''''''''''''''''''''''''''''''''''''''''''''''''/
    package view
    {
        interface StrategyMode {
            + select()
        }
        class Facile implements StrategyMode {
            - panel : JPanel
            - pnlInfo : JPanel
            - informations : JPanel
            - pions : JPanel
            - tentatives : JPanel
            - tentative : JPanel
            - indices : JPanel
            - rouge : JLabel
            - bleu : JLabel
            - vert : JLabel
            - jaune : JLabel
            - orange : JLabel
            - violet : JLabel
            - blanc : JLabel
            - noir : JLabel
            - position : int
            - partie : Partie
            - numManche : JLabel
            - numTentative : JLabel
            - nbManche : int
            - tent = new ArrayList<String>() : String[*]
            - scoreTotal : JLabel
            + <<Creata>> Facile(nomJoueur: String, spnNbMancheValue: int, spnPionsCombinaisonValue: int, spnNbTentativesValue: int,
            spnPionsDifferentValue: int)
            + setInfos(): JPanel
            + setJoueur(): JLabel
            + setNumManche(): JLabel
            + setNbTentative(): JLabel
            + setScoreTotal(): JLabel
            + setPions(): JPanel
            + setRouge(): JLabel
            + setBleu(): JLabel
            + setVert(): JLabel
            + setJaune(): JLabel
            + setOrange(): JLabel
            + setViolet(): JLabel
            + setBlanc(): JLabel
            + setNoir(): JLabel
            + setTentatives(): JPanel
            + addTentativesPasser()
            + setTentative(): JPanel
            + setVide() : JLabel
            + setIndices(): JPanel
            + addIndices()
        }

        class Classique implements StrategyMode {
            + select()
            - panel : JPanel
            - pnlInfo : JPanel
            - informations : JPanel
            - pions : JPanel
            - tentatives : JPanel
            - tentative : JPanel
            - indices : JPanel
            - rouge : JLabel
            - bleu : JLabel
            - vert : JLabel
            - jaune : JLabel
            - orange : JLabel
            - violet : JLabel
            - blanc : JLabel
            - noir : JLabel
            - position : int
            - partie : Partie
            - numManche : JLabel
            - numTentative : JLabel
            - nbManche : int
            - tent = new ArrayList<String>() : String[*]
            - scoreTotal : JLabel
            + <<Creata>> Facile(nomJoueur: String, spnNbMancheValue: int, spnPionsCombinaisonValue: int, spnNbTentativesValue: int,
            spnPionsDifferentValue: int)
            + setInfos(): JPanel
            + setJoueur(): JLabel
            + setNumManche(): JLabel
            + setNbTentative(): JLabel
            + setScoreTotal(): JLabel
            + setPions(): JPanel
            + setRouge(): JLabel
            + setBleu(): JLabel
            + setVert(): JLabel
            + setJaune(): JLabel
            + setOrange(): JLabel
            + setViolet(): JLabel
            + setBlanc(): JLabel
            + setNoir(): JLabel
            + setTentatives(): JPanel
            + addTentativesPasser()
            + setTentative(): JPanel
            + setVide() : JLabel
            + setIndices(): JPanel
            + addIndices()
        }

        class Numerique implements StrategyMode {
            + select()
            - panel : JPanel
            - pnlInfo : JPanel
            - informations : JPanel
            - pions : JPanel
            - tentatives : JPanel
            - tentative : JPanel
            - indices : JPanel
            - rouge : JLabel
            - bleu : JLabel
            - vert : JLabel
            - jaune : JLabel
            - orange : JLabel
            - violet : JLabel
            - blanc : JLabel
            - noir : JLabel
            - position : int
            - partie : Partie
            - numManche : JLabel
            - numTentative : JLabel
            - nbManche : int
            - tent = new ArrayList<String>() : String[*]
            - scoreTotal : JLabel
            + <<Creata>> Facile(nomJoueur: String, spnNbMancheValue: int, spnPionsCombinaisonValue: int, spnNbTentativesValue: int,
            spnPionsDifferentValue: int)
            + setInfos(): JPanel
            + setJoueur(): JLabel
            + setNumManche(): JLabel
            + setNbTentative(): JLabel
            + setScoreTotal(): JLabel
            + setPions(): JPanel
            + setRouge(): JLabel
            + setBleu(): JLabel
            + setVert(): JLabel
            + setJaune(): JLabel
            + setOrange(): JLabel
            + setViolet(): JLabel
            + setBlanc(): JLabel
            + setNoir(): JLabel
            + setTentatives(): JPanel
            + addTentativesPasser()
            + setTentative(): JPanel
            + setVide() : JLabel
            + setIndices(): JPanel
            + addIndices()
        }

        class EcranDemarrage {
            - btnJouer: JButton 
            - btnCredits: JButton 
            - panelBoutonsMenu: JPanel 
            - menu: JPanel 
            - lblTitre: JLabel 
            + EcranDemarrage()
        }

        class EcranFin {
            + panelWin: JPanel 
            + panelLoose: JPanel 
            + rejouer: JButton 
            + <<Create>> EcranFin()
            + affichageWin()
            + affichageLoose()
        }
    }

    /''''''''''''''''''''''''''''''''''''''''''''''''''''''''''
    '                       controller                        '
    ''''''''''''''''''''''''''''''''''''''''''''''''''''''''''/
    package controller
    {
        class EcranParametres {
            - spnNbMancheValue: Integer
            - spnPionsCombinaisonValue: Integer
            - spnNbTentativesValue: Integer
            - spnPionsDifferentValue: Integer
            - nomJoueur: String
            + <<Create>> EcranParametres()
        }
    }
}

/''''''''''''''''''''''''''''''''''''''''''''''''''''''''''
'                          lien                           '
''''''''''''''''''''''''''''''''''''''''''''''''''''''''''/
MastermindApp ..> MastermindFacade : <<uses>>
MastermindFacade ..> Partie : <<uses>>
MastermindFacade ..> StrategyMode : <<uses>>
MastermindFacade ..> ModeFactory : <<uses>>
Partie *--> "3..5\n -_manches" Manche: > est composé de
Partie o-> "1\n-_mode" StrategyMode : > select
Partie *-> "1\n-_score" Score
Manche *-> "*\n -_indices" LigneIndices: > est composé de
Manche *--> "10..12\n -_tentatives" Combinaison: > est composé de
Manche *--> "1\n -_combinaison_secrete" Combinaison: > est composé de
LigneIndices --> "*\n -_indices" Indice: > est composé de
Combinaison o--> "4..6\n -_pions" Pions: > est composé de
ModeFactory ..> StrategyMode : <<use>>
ModeFactory ..> Facile : <<use>>
ModeFactory ..> Classique : <<use>>
ModeFactory ..> Numerique : <<use>>
@enduml